<svg width="512" height="512" viewBox="0 0 512 512" xmlns="http://www.w3.org/2000/svg">
  <defs>
    <linearGradient id="primary" x1="0%" y1="0%" x2="100%" y2="100%">
      <stop offset="0%" style="stop-color:#3b82f6;stop-opacity:1" />
      <stop offset="100%" style="stop-color:#1d4ed8;stop-opacity:1" />
    </linearGradient>
    <filter id="glow" x="-20%" y="-20%" width="140%" height="140%">
      <feGaussianBlur stdDeviation="5" result="blur"/>
      <feComposite in="SourceGraphic" in2="blur" operator="over"/>
    </filter>
  </defs>
  
  <!-- Background Container -->
  <rect x="32" y="32" width="448" height="448" rx="100" fill="url(#primary)" />
  
  <!-- Anvil -->
  <path d="M120 360 L120 400 L392 400 L392 360 C392 360 380 340 360 340 L300 340 C280 340 280 300 280 300 L280 200 L160 200 C140 200 120 220 120 240 L120 360 Z" fill="#ffffff" />
  
  <!-- Spark (Innovation/Idea) -->
  <path d="M256 80 L280 140 L340 160 L280 180 L256 240 L232 180 L172 160 L232 140 Z" fill="#fbbf24" filter="url(#glow)" />
  
  <!-- Hammer Head Hint (Negative Space or Overlay) -->
  <!-- Simplified to just Anvil and Spark for clarity at small sizes -->
</svg>